<?xml version="1.0" encoding="UTF-8" standalone="no"?>
<svg
   xmlns:dc="http://purl.org/dc/elements/1.1/"
   xmlns:cc="http://creativecommons.org/ns#"
   xmlns:rdf="http://www.w3.org/1999/02/22-rdf-syntax-ns#"
   xmlns:svg="http://www.w3.org/2000/svg"
   xmlns="http://www.w3.org/2000/svg"
   xmlns:sodipodi="http://sodipodi.sourceforge.net/DTD/sodipodi-0.dtd"
   xmlns:inkscape="http://www.inkscape.org/namespaces/inkscape"
   inkscape:export-ydpi="768"
   inkscape:export-xdpi="768"
   inkscape:export-filename="C:\Users\nahkd\Desktop\Inkscape\Logos\Just Mango Studio (thin lines).png"
   width="128"
   height="128"
   viewBox="0 0 33.866666 33.866668"
   version="1.1"
   id="svg8"
   inkscape:version="1.0 (4035a4fb49, 2020-05-01)"
   sodipodi:docname="Just Mango Studio (thin lines).svg">
  <defs
     id="defs2" />
  <sodipodi:namedview
     id="base"
     pagecolor="#ffffff"
     bordercolor="#666666"
     borderopacity="1.0"
     inkscape:pageopacity="0.0"
     inkscape:pageshadow="2"
     inkscape:zoom="1"
     inkscape:cx="-5.4352909"
     inkscape:cy="41.018038"
     inkscape:document-units="mm"
     inkscape:current-layer="layer1"
     inkscape:document-rotation="0"
     showgrid="false"
     units="px"
     inkscape:window-width="1366"
     inkscape:window-height="705"
     inkscape:window-x="-8"
     inkscape:window-y="-8"
     inkscape:window-maximized="1" />
  <metadata
     id="metadata5">
    <rdf:RDF>
      <cc:Work
         rdf:about="">
        <dc:format>image/svg+xml</dc:format>
        <dc:type
           rdf:resource="http://purl.org/dc/dcmitype/StillImage" />
        <dc:title />
      </cc:Work>
    </rdf:RDF>
  </metadata>
  <g
     inkscape:label="Layer 1"
     inkscape:groupmode="layer"
     id="layer1">
    <path
       style="fill:none;stroke:#000000;stroke-width:0.79375;stroke-linecap:butt;stroke-linejoin:miter;stroke-miterlimit:4;stroke-dasharray:none;stroke-opacity:1"
       d="M 10.132134,33.860826 C 9.1031459,25.815398 11.722388,23.479628 11.722388,23.479628"
       id="path34" />
    <path
       style="fill:none;stroke:#000000;stroke-width:0.79375;stroke-linecap:butt;stroke-linejoin:miter;stroke-miterlimit:4;stroke-dasharray:none;stroke-opacity:1"
       d="M 10.132134,33.860827 C 11.722388,23.479628 12.470743,20.486209 12.470743,20.486209"
       id="path36" />
    <path
       style="fill:none;stroke:#000000;stroke-width:0.79375;stroke-linecap:butt;stroke-linejoin:miter;stroke-miterlimit:4;stroke-dasharray:none;stroke-opacity:1"
       d="m 12.681218,20.97147 c -2.058122,-0.714042 -2.8178707,-2.155499 -2.9713437,-3.010723 -0.188329,-1.049458 0.5158037,-2.05821 0.5158037,-2.05821 0.327353,-0.700908 1.706971,-1.232897 2.408767,-3.157121 0.470958,-1.2913 2.286014,-2.85418 3.203894,-3.0168055"
       id="path38"
       sodipodi:nodetypes="csssc" />
    <path
       style="fill:none;stroke:#000000;stroke-width:0.79375;stroke-linecap:butt;stroke-linejoin:miter;stroke-miterlimit:4;stroke-dasharray:none;stroke-opacity:1"
       d="m 15.838339,9.7286102 c 4.677216,-1.9644306 5.940065,1.4031658 5.940065,1.4031658 0,0 2.057975,4.256267 3.040191,11.365636 0.982215,7.10937 -0.233861,11.599497 -0.233861,11.599497"
       id="path42" />
    <path
       style="fill:none;stroke:#000000;stroke-width:0.79375;stroke-linecap:round;stroke-linejoin:miter;stroke-miterlimit:4;stroke-dasharray:none;stroke-opacity:1"
       d="m 21.170366,20.486209 c -0.888671,10.944687 0.04677,13.37684 0.04677,13.37684"
       id="path44" />
    <path
       style="fill:none;stroke:#000000;stroke-width:0.79375;stroke-linecap:butt;stroke-linejoin:miter;stroke-miterlimit:4;stroke-dasharray:none;stroke-opacity:1"
       d="m 25.192772,26.33273 c 1.07576,7.34323 0.514494,7.904496 0.514494,7.904496"
       id="path46" />
    <path
       style="fill:none;stroke:#000000;stroke-width:0.79375;stroke-linecap:butt;stroke-linejoin:miter;stroke-miterlimit:4;stroke-dasharray:none;stroke-opacity:1"
       d="m 15.838339,9.7286102 c -1.519622,2.4445538 -2.108042,3.5438758 -2.79472,4.5119598 -1.046741,1.475706 -1.577515,2.41667 -1.788953,2.644183 -0.388662,0.41821 -0.514494,2.666013 -0.514494,2.666013"
       id="path48"
       sodipodi:nodetypes="cssc" />
    <path
       style="fill:none;stroke:#000000;stroke-width:0.79375;stroke-linecap:butt;stroke-linejoin:miter;stroke-miterlimit:4;stroke-dasharray:none;stroke-opacity:1"
       d="m 20.328467,9.5415221 c 0,0 -3.133735,7.8577239 -2.899875,9.2141169 0.233861,1.356393 1.964431,5.986837 2.478925,12.488168 l 0.187089,2.666014"
       id="path50" />
    <path
       style="fill:none;stroke:#000000;stroke-width:0.529167;stroke-linecap:round;stroke-linejoin:miter;stroke-miterlimit:4;stroke-dasharray:none;stroke-opacity:1"
       d="m 17.241504,16.650891 c 0,0 -1.49671,-2.946646 -4.864306,-0.608038 0,0 1.216077,3.133736 2.946647,2.525697 1.73057,-0.608038 1.917659,-1.917659 1.917659,-1.917659 z"
       id="path69" />
    <path
       style="fill:none;stroke:#000000;stroke-width:0.529167;stroke-linecap:round;stroke-linejoin:miter;stroke-miterlimit:4;stroke-dasharray:none;stroke-opacity:1"
       d="m 12.377198,16.042853 c 2.899875,1.637026 4.864306,0.608038 4.864306,0.608038"
       id="path71" />
    <path
       style="fill:none;stroke:#000000;stroke-width:0.79375;stroke-linecap:round;stroke-linejoin:miter;stroke-miterlimit:4;stroke-dasharray:none;stroke-opacity:1"
       d="M 19.393023,9.1205724 C 21.72375,7.7326776 21.170685,6.3943383 21.26391,5.8465209 l 0.112916,-1.8241145 c 0,0 -4.15871,3.0401908 -4.147017,3.6950011"
       id="path73"
       sodipodi:nodetypes="cccc" />
    <path
       style="fill:none;stroke:#000000;stroke-width:0.79375;stroke-linecap:butt;stroke-linejoin:miter;stroke-miterlimit:4;stroke-dasharray:none;stroke-opacity:1"
       d="M 17.054415,9.2608891 C 17.288276,4.9578498 18.972074,3.3675959 18.972074,3.3675959 19.313745,2.8361067 17.788029,2.4961286 16.493149,4.7239888 15.915518,5.7178111 16.783355,9.3086028 15.838339,9.72861"
       id="path75"
       sodipodi:nodetypes="ccsc" />
    <path
       style="fill:none;stroke:#000000;stroke-width:0.264583;stroke-linecap:round;stroke-linejoin:miter;stroke-miterlimit:4;stroke-dasharray:none;stroke-opacity:1"
       d="m 20.094606,7.015825 c 0,0 -2.245064,1.9176589 -1.824114,2.2450639"
       id="path77" />
    <path
       style="fill:none;stroke:#000000;stroke-width:0.264583;stroke-linecap:round;stroke-linejoin:miter;stroke-miterlimit:4;stroke-dasharray:none;stroke-opacity:1"
       d="M 19.018846,6.6884197 C 18.551125,8.2786735 18.270492,9.2608889 18.270492,9.2608889"
       id="path79" />
    <ellipse
       style="fill:#000000;stroke-width:0.79375;stroke-miterlimit:4;stroke-dasharray:none"
       id="path81"
       cx="14.567462"
       cy="12.862345"
       rx="0.46772167"
       ry="0.60803819" />
    <ellipse
       style="fill:#000000;stroke-width:0.79375;stroke-miterlimit:4;stroke-dasharray:none"
       id="path83"
       cx="18.263155"
       cy="12.909118"
       rx="0.44433558"
       ry="0.65481037" />
    <path
       style="fill:none;stroke:#000000;stroke-width:0.264583px;stroke-linecap:butt;stroke-linejoin:miter;stroke-opacity:1"
       d="M 12.470743,20.486209 Z"
       id="path908" />
  </g>
</svg>
